<?xml version="1.0" encoding="UTF-8"?>
<svg version="1.1" xmlns="http://www.w3.org/2000/svg" width="96" height="96">
<path d="M0 0 C1.27875 0.00257812 2.5575 0.00515625 3.875 0.0078125 C5.15375 0.00523438 6.4325 0.00265625 7.75 0 C10.875 0.1328125 10.875 0.1328125 11.875 1.1328125 C12 4.6328125 12 4.6328125 11.875 8.1328125 C10.875 9.1328125 10.875 9.1328125 8.3125 9.1953125 C7.508125 9.1746875 6.70375 9.1540625 5.875 9.1328125 C5.875 10.1228125 5.875 11.1128125 5.875 12.1328125 C6.5040625 12.15859375 7.133125 12.184375 7.78125 12.2109375 C14.10515102 12.62999118 18.38058326 13.9786103 23.875 17.1328125 C24.431875 16.4521875 24.98875 15.7715625 25.5625 15.0703125 C27.875 13.1328125 27.875 13.1328125 30.4375 13.1953125 C33.05124667 14.20059968 34.35731477 14.7719688 35.875 17.1328125 C35.67750247 20.98401428 34.34242938 23.23626497 31.875 26.1328125 C32.8340625 27.7415625 32.8340625 27.7415625 33.8125 29.3828125 C38.375976 37.03767546 38.03694427 47.53031686 36.26171875 56.08984375 C32.99214243 65.23601539 26.47688213 71.84262895 17.953125 76.2578125 C9.97412027 79.61739344 -1.41584732 79.54508047 -9.5625 76.6328125 C-18.18043786 72.49794332 -24.42629707 65.91723196 -28.125 57.1328125 C-30.91301918 48.89466551 -30.24606699 37.15816792 -26.51171875 29.375 C-22.01179209 22.09906225 -16.29444844 16.08771938 -8.125 13.1328125 C-4.78508773 12.51154211 -1.51922689 12.21075926 1.875 12.1328125 C1.875 11.1428125 1.875 10.1528125 1.875 9.1328125 C1.070625 9.1534375 0.26625 9.1740625 -0.5625 9.1953125 C-3.125 9.1328125 -3.125 9.1328125 -4.125 8.1328125 C-4.25 4.6328125 -4.25 4.6328125 -4.125 1.1328125 C-3.125 0.1328125 -3.125 0.1328125 0 0 Z M-0.125 3.1328125 C-0.125 4.1228125 -0.125 5.1128125 -0.125 6.1328125 C2.515 6.1328125 5.155 6.1328125 7.875 6.1328125 C7.875 5.1428125 7.875 4.1528125 7.875 3.1328125 C5.235 3.1328125 2.595 3.1328125 -0.125 3.1328125 Z M-19.125 26.1328125 C-23.05187178 31.61619046 -24.7591236 36.42507852 -25.125 43.1328125 C-24.465 43.1328125 -23.805 43.1328125 -23.125 43.1328125 C-22.95484375 42.39675781 -22.7846875 41.66070312 -22.609375 40.90234375 C-21.23887538 35.38389581 -20.09596668 31.37763895 -16.125 27.1328125 C-16.125 26.4728125 -16.125 25.8128125 -16.125 25.1328125 C-3.70608371 18.85295233 -3.70608371 18.85295233 1.875 18.1328125 C1.875 17.4728125 1.875 16.8128125 1.875 16.1328125 C-6.05513545 15.10956922 -14.04780274 20.43675289 -19.125 26.1328125 Z M5.875 16.1328125 C5.875 16.7928125 5.875 17.4528125 5.875 18.1328125 C6.61105469 18.30296875 7.34710938 18.473125 8.10546875 18.6484375 C13.62391669 20.01893712 17.63017355 21.16184582 21.875 25.1328125 C22.535 25.1328125 23.195 25.1328125 23.875 25.1328125 C30.15486017 37.55172879 30.15486017 37.55172879 30.875 43.1328125 C31.535 43.1328125 32.195 43.1328125 32.875 43.1328125 C32.42898769 34.95592015 29.72506594 28.45223384 23.625 22.8203125 C18.97891953 19.1785158 13.74389823 16.36700827 7.8125 15.8828125 C6.8534375 16.0065625 6.8534375 16.0065625 5.875 16.1328125 Z M28.875 18.1328125 C27.885 19.6178125 27.885 19.6178125 26.875 21.1328125 C27.865 21.1328125 28.855 21.1328125 29.875 21.1328125 C30.205 20.1428125 30.535 19.1528125 30.875 18.1328125 C30.215 18.1328125 29.555 18.1328125 28.875 18.1328125 Z M-15.8984375 32.2890625 C-19.83054427 38.19974528 -19.82363277 44.25396674 -19.125 51.1328125 C-17.35157567 57.77754164 -12.6783353 62.30649209 -7.125 66.1328125 C-1.12612996 69.07343507 5.7578353 69.23165038 12.1875 67.515625 C18.31632861 64.81032175 23.11452792 59.72417555 26.046875 53.7421875 C27.95305857 47.73591098 27.93938687 40.62989692 25.375 34.8203125 C21.89462742 28.88757775 16.4393807 24.20117506 9.875 22.1328125 C-1.84894962 20.70672388 -8.43242361 23.44663265 -15.8984375 32.2890625 Z M-25.125 47.1328125 C-24.67898769 55.30970485 -21.97506594 61.81339116 -15.875 67.4453125 C-11.22891953 71.0871092 -5.99389823 73.89861673 -0.0625 74.3828125 C0.576875 74.3003125 1.21625 74.2178125 1.875 74.1328125 C1.875 73.4728125 1.875 72.8128125 1.875 72.1328125 C1.13894531 71.96265625 0.40289062 71.7925 -0.35546875 71.6171875 C-5.87391669 70.24668788 -9.88017355 69.10377918 -14.125 65.1328125 C-14.785 65.1328125 -15.445 65.1328125 -16.125 65.1328125 C-22.40486017 52.71389621 -22.40486017 52.71389621 -23.125 47.1328125 C-23.785 47.1328125 -24.445 47.1328125 -25.125 47.1328125 Z M30.875 47.1328125 C30.70484375 47.86886719 30.5346875 48.60492188 30.359375 49.36328125 C28.98887538 54.88172919 27.84596668 58.88798605 23.875 63.1328125 C23.875 63.7928125 23.875 64.4528125 23.875 65.1328125 C11.45608371 71.41267267 11.45608371 71.41267267 5.875 72.1328125 C5.875 72.7928125 5.875 73.4528125 5.875 74.1328125 C14.05189235 73.68680019 20.55557866 70.98287844 26.1875 64.8828125 C29.8292967 60.23673203 32.64080423 55.00171073 33.125 49.0703125 C33.00125 48.11125 33.00125 48.11125 32.875 47.1328125 C32.215 47.1328125 31.555 47.1328125 30.875 47.1328125 Z " fill="#7345FF" transform="translate(44.125,8.8671875)"/>
<path d="M0 0 C6.4646103 -0.45365686 9.69085018 0.22233571 15 4 C19.90563811 9.29292533 20.11306591 13.10297937 20 20 C19.33613281 20.01417969 18.67226562 20.02835938 17.98828125 20.04296875 C11.67911891 20.38375562 9.37848365 21.25664271 5 26 C2 26.625 2 26.625 -1 26 C-4.32274404 23.54405875 -5.77618008 22.0743356 -6.625 18 C-6 15 -6 15 -3.5625 12.75 C0.0743331 8.84705716 -0.11043559 5.17039341 0 0 Z M0 14 C-0.66 14.66 -1.32 15.32 -2 16 C-1.67958603 18.60280568 -1.67958603 18.60280568 -1 21 C1.39719432 21.67958603 1.39719432 21.67958603 4 22 C4.66 21.34 5.32 20.68 6 20 C5.67958603 17.39719432 5.67958603 17.39719432 5 15 C2.60280568 14.32041397 2.60280568 14.32041397 0 14 Z " fill="#7944FF" transform="translate(46,36)"/>
<path d="M0 0 C6.32625465 0.32722007 9.45150768 1.2399499 14 6 C16.45019562 9.920313 17.13839741 12.44826306 17 17 C13.29260742 17.28324731 9.69677177 17.46004271 6 17 C4 14.5625 4 14.5625 3 12 C2.01 11.67 1.02 11.34 0 11 C0 7.37 0 3.74 0 0 Z " fill="#95BDFF" transform="translate(49,36)"/>
<path d="M0 0 C1.32 0 2.64 0 4 0 C4.14695312 0.66386719 4.29390625 1.32773437 4.4453125 2.01171875 C6.04948377 8.32699069 7.35376784 11.59095417 13 15 C15.67711737 15.91166699 18.2075126 16.47039032 21 17 C21 18.32 21 19.64 21 21 C14.63309328 21.66321945 10.97453707 19.96662433 6 16 C2.1916756 11.89101841 0.06314305 8.89429158 -0.125 3.25 C-0.08375 2.1775 -0.0425 1.105 0 0 Z " fill="#9935FF" transform="translate(27,54)"/>
<path d="M0 0 C4.95 0 9.9 0 15 0 C15.33 2.64 15.66 5.28 16 8 C12.29243911 8.28326017 8.69697887 8.45938791 5 8 C2.9375 5.5625 2.9375 5.5625 2 3 C1.34 2.67 0.68 2.34 0 2 C0 1.34 0 0.68 0 0 Z " fill="#B6B4FF" transform="translate(50,45)"/>
<path d="M0 0 C7.625 0.625 7.625 0.625 11 4 C7.7 4 4.4 4 1 4 C1 6.31 1 8.62 1 11 C0.67 11 0.34 11 0 11 C0 7.37 0 3.74 0 0 Z " fill="#76B2FF" transform="translate(49,36)"/>
<path d="M0 0 C3.3 0 6.6 0 10 0 C10.33 0.99 10.66 1.98 11 3 C7.37 3 3.74 3 0 3 C0 2.01 0 1.02 0 0 Z " fill="#C39DFF" transform="translate(55,50)"/>
</svg>
